<svg id="Layer_1" enable-background="new 0 0 511.449 511.449" height="512" viewBox="0 0 511.449 511.449" width="512" xmlns="http://www.w3.org/2000/svg"><path d="m436.508 74.941c-99.912-99.914-261.639-99.93-361.566 0-99.914 99.912-99.93 261.639 0 361.566 99.912 99.914 261.639 99.93 361.566 0 99.913-99.911 99.929-261.638 0-361.566zm-180.784 394.45c-117.816 0-213.667-95.851-213.667-213.667s95.851-213.667 213.667-213.667 213.667 95.851 213.667 213.667-95.85 213.667-213.667 213.667z"/><path d="m170.391 191.391h170.666c11.598 0 21-9.402 21-21s-9.402-21-21-21h-170.666c-11.598 0-21 9.402-21 21s9.403 21 21 21z"/><path d="m277.057 234.724h-106.666c-11.598 0-21 9.402-21 21s9.402 21 21 21h106.666c11.598 0 21-9.402 21-21s-9.402-21-21-21z"/><path d="m255.724 320.057h-85.333c-11.598 0-21 9.402-21 21s9.402 21 21 21h85.333c11.598 0 21-9.402 21-21s-9.402-21-21-21z"/><path d="m396.843 324.659-53.333-42.666c-13.717-10.974-34.118-1.19-34.118 16.398v85.333c0 17.715 20.533 27.266 34.119 16.398l53.333-42.667c10.498-8.398 10.503-24.392-.001-32.796z"/></svg>